<?xml version="1.0" encoding="utf-8"?>
<!-- Generator: Adobe Illustrator 19.0.0, SVG Export Plug-In . SVG Version: 6.00 Build 0)  -->
<svg version="1.1" xmlns="http://www.w3.org/2000/svg" xmlns:xlink="http://www.w3.org/1999/xlink" x="0px" y="0px"
	 viewBox="-190 192.2 17.8 17.8" style="enable-background:new -190 192.2 17.8 17.8;" xml:space="preserve">
<path id="XMLID_127_" d="M-181.1,197.6L-181.1,197.6c-1.9,0-3.5,1.5-3.5,3.5c0,1.9,1.5,3.5,3.5,3.5
	c1.9,0,3.5-1.5,3.5-3.5C-177.6,199.2-179.2,197.6-181.1,197.6z M-181.1,203.3c-1.2,0-2.2-1-2.2-2.2s1-2.2,2.2-2.2s2.2,1,2.2,2.2
	S-179.9,203.3-181.1,203.3z"/>
<path id="XMLID_130_" d="M-181.1,192.2c-4.9,0-8.9,4-8.9,8.9s4,8.9,8.9,8.9s8.9-4,8.9-8.9S-176.2,192.2-181.1,192.2z
	 M-181.1,208.6c-4.1,0-7.5-3.3-7.5-7.5c0-4.2,3.4-7.5,7.5-7.5c4.1,0,7.5,3.3,7.5,7.5C-173.6,205.3-177,208.6-181.1,208.6z"/>
</svg>
